<?xml version="1.0" encoding="utf-8"?>
<!-- Generator: Adobe Illustrator 17.0.0, SVG Export Plug-In . SVG Version: 6.00 Build 0)  -->
<!DOCTYPE svg PUBLIC "-//W3C//DTD SVG 1.1//EN" "http://www.w3.org/Graphics/SVG/1.1/DTD/svg11.dtd">
<svg version="1.1" id="Слой_1" xmlns="http://www.w3.org/2000/svg" xmlns:xlink="http://www.w3.org/1999/xlink" x="0px" y="0px"
	 width="91.256px" height="77.282px" viewBox="0 0 91.256 77.282" enable-background="new 0 0 91.256 77.282" xml:space="preserve">
<g>
	<defs>
		<rect id="SVGID_1_" width="91.256" height="77.282"/>
	</defs>
	<clipPath id="SVGID_2_">
		<use xlink:href="#SVGID_1_"  overflow="visible"/>
	</clipPath>
	<g clip-path="url(#SVGID_2_)">
		<defs>
			<rect id="SVGID_3_" y="0" width="91.256" height="77.282"/>
		</defs>
		<clipPath id="SVGID_4_">
			<use xlink:href="#SVGID_3_"  overflow="visible"/>
		</clipPath>
		<g opacity="0.6" clip-path="url(#SVGID_4_)">
			<g>
				<defs>
					<rect id="SVGID_5_" x="57.962" y="0" width="13.534" height="6.196"/>
				</defs>
				<clipPath id="SVGID_6_">
					<use xlink:href="#SVGID_5_"  overflow="visible"/>
				</clipPath>
				<path clip-path="url(#SVGID_6_)" fill="#FFFFFF" d="M61.06,6.196h0.002v0.001h7.17V6.188c0.056,0.003,0.11,0.008,0.166,0.008
					c1.711,0,3.099-1.387,3.099-3.098c0-1.711-1.388-3.097-3.099-3.097c-0.056,0-0.11,0.005-0.166,0.008V0h-7.17v0.001H61.06
					c-1.711,0-3.098,1.386-3.098,3.097C57.962,4.809,59.349,6.196,61.06,6.196"/>
			</g>
		</g>
		<path clip-path="url(#SVGID_4_)" fill="#FFFFFF" d="M35.247,6.196v0.001h17.859V6.196c1.711,0,3.099-1.387,3.099-3.098
			c0-1.711-1.388-3.097-3.099-3.097V0H35.247v0.001c-1.711,0-3.098,1.386-3.098,3.097C32.149,4.809,33.536,6.196,35.247,6.196"/>
		<path clip-path="url(#SVGID_4_)" fill="#FFFFFF" d="M34.774,41.711c1.711,0,3.098-1.387,3.098-3.098
			c0-1.711-1.387-3.098-3.098-3.098c-1.711,0-3.099,1.387-3.099,3.098C31.675,40.324,33.063,41.711,34.774,41.711"/>
		<path clip-path="url(#SVGID_4_)" fill="#FFFFFF" d="M34.706,53.484L34.706,53.484h15.263v-0.008
			c0.054,0.002,0.108,0.008,0.163,0.008c1.711,0,3.097-1.387,3.097-3.098s-1.386-3.098-3.097-3.098
			c-0.055,0-0.109,0.006-0.163,0.009v-0.009H34.706c-1.711,0-3.098,1.387-3.098,3.098S32.995,53.484,34.706,53.484"/>
		<path clip-path="url(#SVGID_4_)" fill="#FFFFFF" d="M55.038,23.71L55.038,23.71c-1.711,0-3.098,1.387-3.098,3.098
			c0,1.711,1.387,3.098,3.098,3.098h30.566v-0.009c0.056,0.003,0.111,0.009,0.166,0.009c1.711,0,3.099-1.387,3.099-3.098
			c0-1.711-1.388-3.098-3.099-3.098c-0.055,0-0.11,0.006-0.166,0.009V23.71H55.038z"/>
		<g opacity="0.6" clip-path="url(#SVGID_4_)">
			<g>
				<defs>
					<rect id="SVGID_7_" x="75.159" y="35.515" width="16.097" height="6.196"/>
				</defs>
				<clipPath id="SVGID_8_">
					<use xlink:href="#SVGID_7_"  overflow="visible"/>
				</clipPath>
				<path clip-path="url(#SVGID_8_)" fill="#FFFFFF" d="M88.158,35.515c-0.056,0-0.11,0.006-0.166,0.009v-0.009h-9.776v0.003
					c-1.692,0.022-3.056,1.398-3.056,3.096c0,1.696,1.364,3.073,3.056,3.095v0.002h9.776v-0.008c0.056,0.003,0.11,0.008,0.166,0.008
					c1.711,0,3.099-1.386,3.099-3.097C91.257,36.903,89.868,35.515,88.158,35.515"/>
			</g>
		</g>
		<path clip-path="url(#SVGID_4_)" fill="#FFFFFF" d="M70.362,41.711L70.362,41.711c1.711,0,3.098-1.387,3.098-3.098
			c0-1.711-1.387-3.098-3.098-3.098H42.759c-1.71,0-3.098,1.387-3.098,3.098c0,1.711,1.388,3.098,3.098,3.098H70.362z"/>
		<g opacity="0.6" clip-path="url(#SVGID_4_)">
			<g>
				<defs>
					<rect id="SVGID_9_" x="54.916" y="47.288" width="33.777" height="6.196"/>
				</defs>
				<clipPath id="SVGID_10_">
					<use xlink:href="#SVGID_9_"  overflow="visible"/>
				</clipPath>
				<path clip-path="url(#SVGID_10_)" fill="#FFFFFF" d="M85.594,47.288c-0.056,0-0.11,0.006-0.166,0.009v-0.009H58.014
					c-1.711,0-3.099,1.388-3.099,3.099c0,1.711,1.388,3.097,3.099,3.097h27.414v-0.009c0.056,0.003,0.11,0.009,0.166,0.009
					c1.711,0,3.099-1.386,3.099-3.097C88.693,48.676,87.305,47.288,85.594,47.288"/>
			</g>
		</g>
		<path clip-path="url(#SVGID_4_)" fill="#FFFFFF" d="M79.671,59.17c-0.056,0-0.11,0.005-0.166,0.008v-0.009H67.908v0.006
			c-1.667,0.05-3.004,1.413-3.004,3.093c0,1.679,1.337,3.043,3.004,3.092v0.006h11.597v-0.009c0.056,0.003,0.11,0.008,0.166,0.008
			c1.711,0,3.099-1.386,3.099-3.097C82.77,60.557,81.382,59.17,79.671,59.17"/>
		<g opacity="0.6" clip-path="url(#SVGID_4_)">
			<g>
				<defs>
					<rect id="SVGID_11_" x="40.546" y="59.17" width="22.715" height="6.196"/>
				</defs>
				<clipPath id="SVGID_12_">
					<use xlink:href="#SVGID_11_"  overflow="visible"/>
				</clipPath>
				<path clip-path="url(#SVGID_12_)" fill="#FFFFFF" d="M43.523,59.169v0.007c-1.654,0.064-2.977,1.422-2.977,3.092
					c0,1.67,1.323,3.027,2.977,3.091v0.007h16.641v-0.001c1.711,0,3.097-1.386,3.097-3.097c0-1.711-1.386-3.098-3.097-3.098v-0.001
					H43.523z"/>
			</g>
		</g>
		<g opacity="0.6" clip-path="url(#SVGID_4_)">
			<g>
				<defs>
					<rect id="SVGID_13_" x="39.5" y="71.086" width="33.369" height="6.196"/>
				</defs>
				<clipPath id="SVGID_14_">
					<use xlink:href="#SVGID_13_"  overflow="visible"/>
				</clipPath>
				<path clip-path="url(#SVGID_14_)" fill="#FFFFFF" d="M69.771,71.085c-0.057,0-0.111,0.006-0.166,0.009v-0.009H42.598
					c-1.711,0-3.098,1.388-3.098,3.099c0,1.711,1.387,3.097,3.098,3.097h27.007v-0.009c0.055,0.003,0.109,0.009,0.166,0.009
					c1.711,0,3.098-1.386,3.098-3.097C72.869,72.473,71.482,71.085,69.771,71.085"/>
			</g>
		</g>
		<path clip-path="url(#SVGID_4_)" fill="#FFFFFF" d="M26.806,71.085c-1.711,0-3.099,1.388-3.099,3.099
			c0,1.711,1.388,3.097,3.099,3.097c1.711,0,3.098-1.386,3.098-3.097C29.904,72.473,28.517,71.085,26.806,71.085"/>
		<path clip-path="url(#SVGID_4_)" fill="#FFFFFF" d="M34.755,71.085c-1.711,0-3.099,1.388-3.099,3.099
			c0,1.711,1.388,3.097,3.099,3.097c1.711,0,3.098-1.386,3.098-3.097C37.853,72.473,36.466,71.085,34.755,71.085"/>
		<path clip-path="url(#SVGID_4_)" fill="#FFFFFF" d="M26.806,47.288c-1.711,0-3.099,1.388-3.099,3.099
			c0,1.711,1.388,3.097,3.099,3.097c1.711,0,3.098-1.386,3.098-3.097C29.904,48.676,28.517,47.288,26.806,47.288"/>
		<g opacity="0.6" clip-path="url(#SVGID_4_)">
			<g>
				<defs>
					<rect id="SVGID_15_" x="15.765" y="35.516" width="6.196" height="6.196"/>
				</defs>
				<clipPath id="SVGID_16_">
					<use xlink:href="#SVGID_15_"  overflow="visible"/>
				</clipPath>
				<path clip-path="url(#SVGID_16_)" fill="#FFFFFF" d="M18.864,35.515c-1.711,0-3.099,1.388-3.099,3.099
					c0,1.711,1.388,3.097,3.099,3.097c1.711,0,3.098-1.386,3.098-3.097C21.962,36.903,20.575,35.515,18.864,35.515"/>
			</g>
		</g>
		<path clip-path="url(#SVGID_4_)" fill="#FFFFFF" d="M10.962,35.515c-1.711,0-3.098,1.388-3.098,3.099
			c0,1.711,1.387,3.097,3.098,3.097s3.098-1.386,3.098-3.097C14.06,36.903,12.673,35.515,10.962,35.515"/>
		<g opacity="0.6" clip-path="url(#SVGID_4_)">
			<g>
				<defs>
					<rect id="SVGID_17_" y="35.516" width="6.196" height="6.196"/>
				</defs>
				<clipPath id="SVGID_18_">
					<use xlink:href="#SVGID_17_"  overflow="visible"/>
				</clipPath>
				<path clip-path="url(#SVGID_18_)" fill="#FFFFFF" d="M3.098,35.515C1.387,35.515,0,36.903,0,38.614
					c0,1.711,1.387,3.097,3.098,3.097s3.098-1.386,3.098-3.097C6.196,36.903,4.809,35.515,3.098,35.515"/>
			</g>
		</g>
		<g opacity="0.6" clip-path="url(#SVGID_4_)">
			<g>
				<defs>
					<rect id="SVGID_19_" x="15.765" y="47.288" width="6.196" height="6.196"/>
				</defs>
				<clipPath id="SVGID_20_">
					<use xlink:href="#SVGID_19_"  overflow="visible"/>
				</clipPath>
				<path clip-path="url(#SVGID_20_)" fill="#FFFFFF" d="M18.864,47.288c-1.711,0-3.099,1.388-3.099,3.099
					c0,1.711,1.388,3.097,3.099,3.097c1.711,0,3.098-1.386,3.098-3.097C21.962,48.676,20.575,47.288,18.864,47.288"/>
			</g>
		</g>
		<g opacity="0.6" clip-path="url(#SVGID_4_)">
			<g>
				<defs>
					<rect id="SVGID_21_" x="31.676" y="23.71" width="18.525" height="6.196"/>
				</defs>
				<clipPath id="SVGID_22_">
					<use xlink:href="#SVGID_21_"  overflow="visible"/>
				</clipPath>
				<path clip-path="url(#SVGID_22_)" fill="#FFFFFF" d="M34.658,29.901v0.006h12.337v-0.006c0.036,0.001,0.071,0.006,0.108,0.006
					c1.711,0,3.098-1.388,3.098-3.099s-1.387-3.097-3.098-3.097c-0.037,0-0.072,0.003-0.108,0.005v-0.005H34.658v0.005
					c-1.656,0.062-2.982,1.42-2.982,3.092S33.001,29.839,34.658,29.901"/>
			</g>
		</g>
		<g opacity="0.6" clip-path="url(#SVGID_4_)">
			<g>
				<defs>
					<rect id="SVGID_23_" x="23.708" y="11.709" width="6.196" height="6.196"/>
				</defs>
				<clipPath id="SVGID_24_">
					<use xlink:href="#SVGID_23_"  overflow="visible"/>
				</clipPath>
				<path clip-path="url(#SVGID_24_)" fill="#FFFFFF" d="M26.806,11.709c-1.711,0-3.099,1.388-3.099,3.099
					c0,1.711,1.388,3.097,3.099,3.097c1.711,0,3.098-1.386,3.098-3.097C29.904,13.097,28.517,11.709,26.806,11.709"/>
			</g>
		</g>
		<path clip-path="url(#SVGID_4_)" fill="#FFFFFF" d="M26.674,23.71c-1.711,0-3.099,1.387-3.099,3.098
			c0,1.711,1.388,3.098,3.099,3.098c1.711,0,3.098-1.387,3.098-3.098C29.772,25.097,28.385,23.71,26.674,23.71"/>
		<g opacity="0.6" clip-path="url(#SVGID_4_)">
			<g>
				<defs>
					<rect id="SVGID_25_" x="76.632" y="11.709" width="6.196" height="6.196"/>
				</defs>
				<clipPath id="SVGID_26_">
					<use xlink:href="#SVGID_25_"  overflow="visible"/>
				</clipPath>
				<path clip-path="url(#SVGID_26_)" fill="#FFFFFF" d="M79.73,17.905c1.711,0,3.098-1.387,3.098-3.098
					c0-1.711-1.387-3.098-3.098-3.098c-1.711,0-3.099,1.387-3.099,3.098C76.631,16.518,78.019,17.905,79.73,17.905"/>
			</g>
		</g>
		<path clip-path="url(#SVGID_4_)" fill="#FFFFFF" d="M68.661,14.807c0,1.711,1.387,3.098,3.098,3.098
			c1.711,0,3.098-1.387,3.098-3.098c0-1.711-1.387-3.099-3.098-3.099C70.048,11.708,68.661,13.096,68.661,14.807"/>
		<path clip-path="url(#SVGID_4_)" fill="#FFFFFF" d="M64.032,17.905v-0.008c1.638-0.082,2.942-1.431,2.942-3.09
			s-1.304-3.008-2.942-3.09v-0.008H43.869v0.003c-1.685,0.031-3.041,1.403-3.041,3.095c0,1.692,1.356,3.065,3.041,3.095v0.003
			H64.032z"/>
	</g>
</g>
</svg>
